<?xml version="1.0" encoding="utf-8"?>
<!-- Generator: Adobe Illustrator 27.5.0, SVG Export Plug-In . SVG Version: 6.00 Build 0)  -->
<svg version="1.1" xmlns="http://www.w3.org/2000/svg" xmlns:xlink="http://www.w3.org/1999/xlink" x="0px" y="0px"
	 viewBox="0 0 2200 2200" style="enable-background:new 0 0 2200 2200;" xml:space="preserve">
<g id="background">
	<rect style="fill:#FFFFFF;" width="2200" height="2200"/>
</g>
<g id="Objects">
	<g>
		<path style="fill:#1C1C1C;" d="M1982.236,966.999c-0.81-3.248-2.095-6.237-3.626-8.731c-0.362-0.625-0.803-1.263-1.25-1.901
			l-1.319-1.909l-0.661-0.953l-0.793-0.962l-1.584-1.919c-0.273-0.318-0.506-0.641-0.811-0.955l-0.929-0.939l-1.855-1.875
			l-0.463-0.468l-0.53-0.445l-1.06-0.888l-2.116-1.772c-79.307-60.183-148.932-113.019-211.891-160.796
			c-60.848-46.055-115.253-87.233-166.126-125.738c-85.85-64.85-156.983-118.39-216.647-163.117
			c-29.859-22.328-56.822-42.491-81.3-60.795c-17.5-13.098-34.111-25.532-49.907-37.355c-1.107-0.812-2.222-1.702-3.312-2.441
			l-1.638-1.149c-0.542-0.369-1.069-0.667-1.603-1.002c-0.53-0.32-1.068-0.669-1.587-0.962l-1.54-0.826
			c-0.508-0.264-1.034-0.573-1.524-0.799l-1.472-0.685l-1.462-0.675l-1.395-0.562c-0.928-0.374-1.867-0.766-2.719-1.041
			c-0.866-0.295-1.76-0.625-2.593-0.888c-0.816-0.244-1.628-0.488-2.439-0.73c-0.835-0.265-1.545-0.42-2.31-0.626
			c-0.74-0.186-1.529-0.409-2.222-0.564c-0.695-0.157-1.388-0.314-2.078-0.47l-1.034-0.235l-0.96-0.195
			c-2.631-0.487-4.719-1.173-7.948-0.88c-3.129,0.246-6.765,1.306-10.055,3.12c-3.304,1.793-6.288,4.28-8.537,7.024
			c-2.266,2.738-3.724,5.708-4.372,8.199c-0.336,1.279-0.417,2.294-0.554,3.498c-0.124,1.193-0.259,2.294-0.366,3.542
			c-0.442,4.878-0.749,10.473-0.221,17.006c0.317,3.314,0.828,6.828,1.814,10.618c0.281,0.965,0.56,1.927,0.839,2.886
			c0.315,0.977,0.629,1.951,0.942,2.922c0.625,1.939,1.246,3.865,1.863,5.779c4.776,14.755,9.305,28.75,13.62,42.08
			c2.878,8.659,5.613,16.886,8.224,24.741c10.482,31.409,19.129,56.824,27.132,80.167c8.018,23.338,15.332,44.624,23.271,67.732
			c3.931,11.567,8.016,23.59,12.422,36.554c1.092,3.244,2.204,6.547,3.339,9.916c0.739,2.116,1.492,4.274,2.261,6.479
			c0.754,2.17,1.523,4.385,2.31,6.651c0.397,1.15,0.798,2.313,1.204,3.49c0.217,0.587,0.393,1.192,0.556,1.804l0.148,0.94
			c0.036,0.315,0.029,0.635,0.046,0.954c-0.001,2.557-1.239,5.134-3.349,6.733c-1.048,0.801-2.303,1.351-3.63,1.565
			c-0.665,0.092-1.341,0.128-2.022,0.115c-0.683,0.003-1.37,0.005-2.061,0.008c-2.8,0.007-5.669,0.013-8.612,0.02
			c-1.493,0.001-3.004,0.002-4.535,0.003c-1.989-0.01-4.002-0.02-6.042-0.031c-19.714-0.202-41.447-0.426-65.71-0.675
			c-48.525-0.591-107.168-1.483-180.026-2.794c-33.294-0.597-68.99-1.448-100.251-0.252c-101.141-3.201-190.911-2.892-284.275-2.041
			c-52.161,0.475-105.448,1.118-162.471,1.41c-28.512,0.146-57.958,0.204-88.666,0.11c-15.354-0.086-31.022-0.174-47.048-0.264
			c-9.945-0.095-20.001-0.192-30.174-0.29c-6.255-0.069-12.546-0.138-18.874-0.207l-2.377-0.027
			c-0.777,0.01-1.519,0.063-2.281,0.092l-2.274,0.104c-0.756,0.038-1.544,0.047-2.201,0.173c-1.376,0.197-2.754,0.395-4.134,0.593
			l-1.036,0.148l-0.921,0.213l-1.841,0.428l-2.57,0.598l-0.643,0.15l-0.565,0.173l-1.124,0.348l-4.484,1.397l-3.956,1.452
			c-0.667,0.221-1.309,0.518-1.948,0.824c-0.322,0.161-0.639,0.273-0.965,0.474l-0.978,0.606c-2.622,1.642-5.238,4.184-7.23,7.309
			c-1.984,3.121-3.369,6.744-3.947,10.346c-0.191,0.905-0.19,1.785-0.295,2.679c-0.041,0.876-0.016,1.731-0.013,2.591
			c0.101,0.807,0.156,1.658,0.294,2.429c0.174,0.731,0.281,1.546,0.511,2.208c0.239,0.664,0.418,1.347,0.706,1.997l0.836,1.959
			c0.584,1.329,1.035,2.547,1.808,4.04l2.118,4.311l2.735,4.658l0.342,0.583l0.433,0.609l0.872,1.221l1.746,2.445l0.439,0.612
			l0.543,0.619l1.086,1.239l2.174,2.48c18.906,19.472,37.964,39.099,57.142,58.85c16.005,16.543,32.109,33.188,48.286,49.908
			c16.171,16.726,32.414,33.528,48.703,50.376c4.072,4.212,8.147,8.427,12.224,12.645l5.56,5.853
			c0.803,0.884,1.753,1.682,2.198,2.821c0.486,1.101,0.57,2.366,0.28,3.537c-0.269,1.188-1.007,2.217-1.901,3.027l-2.577,2.536
			l-1.949,1.917l-0.97,0.954l-2.34,2.35l-9.49,9.536l-18.981,19.079c-12.648,12.725-25.295,25.447-37.927,38.156
			c-25.511,25.732-50.964,51.405-76.26,76.92c-5.095,5.167-10.186,10.331-15.273,15.49l-7.636,7.747
			c-1.247,1.293-2.603,2.578-3.76,3.878l-3.425,3.905c-0.949,1.29-1.804,2.573-2.71,3.86l-0.671,0.965l-0.335,0.482l-0.253,0.459
			l-1.01,1.834l-1.01,1.834l-0.505,0.917c-0.173,0.308-0.343,0.615-0.448,0.886l-1.472,3.372c-1.098,2.346-1.656,4.241-2.41,6.301
			c-0.391,1.012-0.622,2.04-0.892,3.104l-0.275,1.742c-0.092,0.58-0.103,1.251-0.159,1.872c-0.122,2.559,0.141,5.371,0.801,8.175
			l0.598,2.088c0.229,0.69,0.489,1.374,0.735,2.06c0.554,1.344,1.189,2.672,1.917,3.915c1.43,2.504,3.203,4.758,5.073,6.577
			c1.922,1.78,3.813,3.081,5.658,4.027l2.893,1.372l1.446,0.686c0.475,0.229,1.107,0.443,1.653,0.665
			c2.319,0.864,4.336,1.821,7.17,2.525l1.992,0.57l0.996,0.285c0.324,0.099,0.66,0.192,1.061,0.248l4.578,0.801l1.148,0.197
			l1.282,0.076l2.563,0.153c0.861,0.043,1.694,0.119,2.577,0.135l2.687,0.002c22.385,0.006,44.655,0.011,66.789,0.017
			c17.282-0.03,34.457-0.059,51.507-0.089c179.878-0.512,473.4,11.572,780.9,12.359c25.218,0.065,50.572,0.021,76.063-0.112
			c3.078-0.018,6.158-0.036,9.24-0.054c0.018-0.019,0.042-0.04,0.073-0.062c0.061-0.044,0.148-0.094,0.27-0.147
			c0.121-0.052,0.278-0.038,0.365,0.033c0.08,0.069,0.1,0.161,0.141,0.297c0.021,0.081,0.039,0.177,0.054,0.288l0.005,0.042
			c-0.018,0.078,0.072-0.19-0.131,0.479l-0.834,2.793l-1.667,5.589c-2.216,7.457-4.435,14.925-6.657,22.404
			c-4.415,14.966-8.843,29.974-13.283,45.023c-8.789,30.124-17.626,60.411-26.507,90.848c-4.411,15.227-8.833,30.492-13.265,45.792
			c-1.106,3.826-2.213,7.653-3.321,11.483c-2.023,6.764-4.047,13.531-6.072,20.303c-2.094,6.992-4.188,13.988-6.284,20.988
			l-3.125,10.439l-1.558,5.206c-0.278,0.877-0.465,1.705-0.692,2.554c-0.208,0.838-0.474,1.712-0.585,2.49
			c-1.266,6.477-1.13,11.92-0.571,16.459c0.582,4.541,1.566,8.265,2.595,11.516c1.162,3.17,1.695,5.572,4.27,9.398
			c2.449,3.693,6.413,7.674,10.983,10.463c4.533,2.849,9.728,4.548,13.684,4.936c0.511,0.073,0.953,0.077,1.431,0.118
			c0.426,0.005,0.899,0.034,1.285,0.017c0.813-0.009,1.544-0.063,2.39-0.138l2.455-0.211c0.837-0.082,1.784-0.227,2.67-0.339
			c3.652-0.531,7.755-1.313,12.511-2.948c4.735-1.644,10.147-4.185,15.843-8.495c11.48-8.909,22.972-17.827,34.476-26.754
			l8.542-6.628l3.371-2.631l2.419-1.91l9.685-7.642c12.929-10.182,25.883-20.384,38.862-30.604
			c25.974-20.418,52.083-40.862,78.335-61.294c52.503-40.864,105.578-81.682,159.291-122.163
			c79.162-59.684,157.576-118.805,230.575-173.842c36.49-27.531,71.626-54.041,104.825-79.089
			c18.374-13.875,36.213-27.345,53.434-40.349c1.62-1.225,3.237-2.448,4.85-3.667c0.807-0.61,1.532-1.26,2.301-1.887l1.137-0.948
			c0.384-0.314,0.765-0.629,1.076-0.967c2.722-2.629,5.117-5.356,6.969-8.01c1.938-2.684,3.498-5.15,4.717-8.256
			c1.199-3.055,2.014-6.458,2.212-9.918C1983.398,973.74,1983.033,970.246,1982.236,966.999z M1917.554,976.494
			c-0.88,0.421-1.665,0.776-2.359,1.07l-0.504,0.209l-0.121,0.049c-0.016,0.009-0.005-0.003-0.045,0.023l-0.253,0.181l-0.505,0.362
			l-2.021,1.447l-8.084,5.793c-21.558,15.462-43.112,31.037-64.664,46.764c-43.104,31.453-86.2,63.508-129.299,96.459
			c-77.113,58.955-157.693,121.482-239.394,185.257c-40.816,31.932-81.958,64.119-123.102,96.308
			c-20.557,16.114-41.115,32.228-61.633,48.312c-10.258,8.042-20.507,16.077-30.741,24.1l-3.837,3.008l-0.959,0.752l-0.406,0.32
			l-0.101,0.089l-0.407,0.358l-1.672,1.467l-3.556,3.091c-1.404,1.206-2.806,2.411-4.206,3.614l-2.223,1.896
			c-0.735,0.666-1.698,1.087-2.663,1.102c-0.961,0.021-1.895-0.323-2.568-0.917c-0.682-0.585-1.082-1.438-1.071-2.278
			c-0.006-0.423,0.111-0.826,0.208-1.234l0.301-1.238l0.625-2.544c0.935-3.704,1.867-7.394,2.795-11.07l0.19-0.737l0.096-0.371
			l0.048-0.186l0.123-0.427l1.478-4.991c0.985-3.326,1.97-6.648,2.953-9.967c1.969-6.637,3.933-13.259,5.892-19.866
			c15.688-52.852,31.172-104.699,46.387-155.099c2.177-7.178,4.403-14.518,6.797-22.411c3.217-10.46,6.66-21.654,10.489-34.104
			c0.535-2.212,1.27-4.492,1.522-6.627c0.155-1.071,0.406-2.197,0.483-3.228c0.078-1.031,0.157-2.063,0.235-3.098
			c0.114-1.064,0.083-2.005,0.079-2.971l-0.013-2.899c-0.077-1.83-0.293-3.691-0.699-5.63c-0.449-1.931-1.084-3.91-1.944-5.831
			c-0.88-1.927-1.956-3.792-3.213-5.555c-2.558-3.48-5.834-6.492-9.375-8.53c-0.435-0.282-0.879-0.512-1.326-0.728
			c-0.445-0.218-0.892-0.463-1.336-0.658c-0.888-0.364-1.775-0.758-2.668-1.069l-2.867-0.897c-0.966-0.295-1.887-0.618-2.99-0.829
			l-3.186-0.713c-1.093-0.21-2.286-0.327-3.426-0.495l-1.735-0.228l-1.838-0.082c-1.234-0.038-2.434-0.148-3.701-0.126
			c-8.978,0.01-18.046,0.019-27.196,0.029c-25.327-0.013-51.568-0.027-78.391-0.041c-53.645-0.104-109.616-0.346-165.246-0.655
			c-111.261-0.738-221.163-1.467-308.386-2.045c-129.157-0.81-252.912-0.628-374.14,0.117c-3.788,0.024-7.574,0.048-11.358,0.072
			l-4.672,0.037l-1.763,0.038c-2.393,0.053-4.784,0.106-7.172,0.159l-3.664,0.084l-1.853,0.043
			c-0.618,0.013-1.248,0.053-1.858-0.068c-1.232-0.206-2.323-0.98-2.974-2.01c-0.655-1.034-0.857-2.316-0.544-3.471
			c0.321-1.178,1.252-1.991,2.043-2.863l2.451-2.637l5.022-5.408l2.837-3.041l7.777-8.079c5.181-5.386,10.359-10.768,15.533-16.147
			c42.745-44.526,85.295-88.849,127.908-133.237c3.169-3.304,5.712-6.865,7.745-10.33c1.041-1.732,1.914-3.462,2.651-5.36
			c0.704-1.904,1.239-3.928,1.56-6.002c0.677-4.151,0.399-8.516-0.643-12.54c-0.546-2.01-1.283-3.92-2.177-5.693
			c-0.232-0.437-0.44-0.881-0.691-1.312l-0.776-1.288c-0.521-0.858-1.006-1.714-1.64-2.578c-0.616-0.86-1.16-1.728-1.835-2.581
			l-2.049-2.554l-2.291-2.476c-0.771-0.822-1.599-1.617-2.395-2.427l-9.485-9.515l-12.274-12.204
			c-16.372-16.277-32.77-32.58-49.21-48.925c-16.438-16.348-32.918-32.738-49.457-49.187c-8.267-8.227-16.549-16.469-24.848-24.727
			l-6.226-6.198l-3.649-3.572c-2.144-2.088-4.29-4.178-6.438-6.271c-2.733-2.667-5.47-5.337-8.21-8.011
			c-0.697-0.674-1.408-1.346-2.007-2.114c-0.555-0.797-1-1.679-1.21-2.628c-0.43-1.883-0.081-3.931,0.967-5.52
			c0.229-0.422,0.574-0.753,0.872-1.124c0.363-0.3,0.686-0.659,1.101-0.887c0.772-0.553,1.689-0.842,2.605-1.021
			c0.931-0.129,1.872-0.102,2.814-0.118l2.839-0.032c3.851-0.041,7.708-0.082,11.57-0.123l5.913-0.058l2.988-0.028l4.497-0.013
			c7.408-0.002,14.829-0.004,22.263-0.006c14.868,0.005,29.788,0.009,44.766,0.014c59.911,0.043,120.742,0.188,182.81,0.487
			c106.618,0.513,216.902,1.482,332.424,3.161c19.009,1.141,42.574,1.038,72.314,2.105c88.182,3.155,174.092,4.304,258.878,4.416
			c5.299,0.003,10.594,0.006,15.884,0.009l7.933-0.004l3.964-0.004l6.766,0.053c4.694,0.038,9.386,0.076,14.076,0.114
			c4.662,0.057,9.413,0.117,13.531-0.688c1.03-0.191,2.118-0.328,3.097-0.563l2.84-0.791c1.988-0.469,3.528-1.203,5.24-1.831
			l1.259-0.485c0.393-0.181,0.768-0.343,1.161-0.545c0.783-0.42,1.554-0.748,2.345-1.241c0.789-0.453,1.576-0.913,2.346-1.475
			c0.778-0.511,1.542-1.111,2.307-1.702c3.021-2.424,5.773-5.501,7.929-8.887c2.18-3.38,3.688-7.119,4.594-10.709
			c0.2-0.892,0.384-1.787,0.53-2.662c0.102-0.861,0.251-1.73,0.313-2.584c0.101-0.831,0.099-1.773,0.125-2.683l0.065-2.741
			c0.028-0.441-0.01-0.94-0.048-1.438l-0.103-1.484c-0.08-0.995-0.114-1.964-0.232-2.979l-0.53-3.141l-0.265-1.569
			c-0.122-0.533-0.289-1.081-0.432-1.62l-0.889-3.244c-0.335-1.087-0.712-2.18-1.065-3.268l-2.15-6.521l-4.278-12.965
			c-1.761-5.138-3.522-10.273-5.282-15.406c-13.668-39.689-27.424-79.203-41.199-118.719c-6.886-19.758-13.773-39.517-20.667-59.295
			c-3.409-9.789-6.819-19.582-10.232-29.383c-1.942-5.119-3.885-10.241-5.83-15.368c-2.105-5.685-4.212-11.374-6.321-17.071
			c-0.593-1.471-0.935-3.076-0.759-4.647c0.166-1.565,0.79-3.046,1.731-4.231c1.853-2.399,5.064-3.554,7.749-2.648
			c1.351,0.415,2.421,1.343,3.601,2.104l3.535,2.413c2.437,1.674,4.875,3.35,7.315,5.027c5.175,3.601,10.358,7.208,15.55,10.82
			l2.024,1.42l2.911,2.094l6.455,4.673c4.302,3.121,8.608,6.246,12.918,9.373c8.606,6.274,17.228,12.561,25.87,18.86
			c17.262,12.627,34.556,25.366,51.888,38.24c34.663,25.746,69.478,52.03,104.488,79.032
			c80.428,62.031,158.102,124.583,234.909,187.214c38.348,31.384,76.575,62.669,114.796,93.95
			c19.114,15.636,38.227,31.27,57.353,46.915c9.577,7.805,19.157,15.613,28.743,23.424l14.397,11.702l3.603,2.924l0.196,0.161
			l0.034,0.038l0.067,0.075l0.132,0.148l0.258,0.292l0.952,1.102l0.879,1.065c0.268,0.331,0.544,0.641,0.603,1.088
			C1919.098,975.126,1918.479,976.127,1917.554,976.494z"/>
		<ellipse style="fill:#D6D6D6;" cx="1060.08" cy="1761.377" rx="764.995" ry="38.5"/>
	</g>
</g>
</svg>
